<svg xmlns="http://www.w3.org/2000/svg" viewBox="0 0 317.81 47.22"><title>資產 1</title><g id="bf71d9fc-31d4-4682-8473-794df0567fb5" data-name="圖層 2"><g id="afe4223f-3203-43d3-b191-e07d42b3a4b1" data-name="圖層 1"><path d="M38.26,10.31C37,3.84,30.71-.47,24.2,0,17.17.6,11,6.78,9.37,13.47,7.26,22.2,16.83,26.7,22.23,31.74c1.43,1.33,4.25,3.23,5,5.05,1.13,2.67-2.81,3.08-5.05,3.57a40,40,0,0,1-18.47-.51C0,38.91-1.61,44.69,2.14,45.64c8.17,2.06,17.13,2.31,25.21-.46,5.06-1.73,8.66-6,5.3-11.23-2-3.15-5.36-5.76-8.13-8.24s-9-5.74-9.55-9.4,3.86-8.16,6.82-9.49c4.52-2,9.7.1,10.68,5.08.75,3.79,6.53,2.19,5.79-1.59Z" style="fill:#231815"/><path d="M32.84,40.67a52.07,52.07,0,0,0,30.4-14.11L59,22.32C54.84,26.91,49.55,36.56,56.77,41c4.1,2.54,9.21.46,13.31-1A106.79,106.79,0,0,0,86.27,32.8a3,3,0,0,0,.6-4.71C82.71,24.2,76.42,22,71,24.73a10.73,10.73,0,0,0-5.2,12.6A8.81,8.81,0,0,0,77,43.18c5.6-1.83,8.79-8,10.45-13.21H81.69c4.76,13.9,25,13.2,27.3-1.92H103.2l2.72,10a3,3,0,0,0,5.49.72c1.71-2.66,3.9-5.65,6.77-7.19,4-2.17,5.45.46,7.88,3.18a17.85,17.85,0,0,0,13.37,5.85c10.39-.07,18.11-9.66,16.84-19.78-.24-1.94-2.48-4.15-4.51-2.59-6.56,5-4.1,14.48,2.63,18.3C163.88,41.91,173.32,32.28,178,25H172.8c2,3.71,2.49,8.11,4.55,11.83a3,3,0,0,0,4.71.61c3-3.44,4.8-10.25,9.27-11.89,7.82-2.87,8.65,7.72,13.72,10.9,7.52,4.71,18.22,1,20.95-7.41,1.2-3.68-4.6-5.25-5.79-1.59-1.46,4.49-7.67,6.46-11.71,4.09-2.59-1.52-3.1-4.62-4.62-7A11,11,0,0,0,198.31,20c-3.92-1.44-9-1-12.33,1.66-3.74,3-5,8-8.17,11.53l4.72.6c-2.05-3.7-2.49-8.1-4.55-11.83a3,3,0,0,0-5.18,0c-2.72,4.28-6.76,9.65-12.31,10-3.21.19-9.82-5.32-5.71-8.47l-4.51-2.59c.73,5.86-2.22,12-8.33,13.5a12.11,12.11,0,0,1-9.23-1.66c-2.22-1.44-3.36-3.83-5.3-5.54-7.88-7-17,2-21.18,8.61l5.48.72-2.72-10c-.73-2.66-5.32-3.05-5.79,0-1.32,8.62-12.67,10.83-15.72,1.92a3,3,0,0,0-5.79,0c-.81,2.56-6.8,14.09-10,7.48a4.63,4.63,0,0,1,2.86-6.11c2.94-.9,6,.62,8.1,2.59l.61-4.72a97.14,97.14,0,0,1-16.45,7.24c-2.46.81-7.93,2.63-7.36-1.87.3-2.35,2.29-4.75,3.81-6.43,2.58-2.85-1.43-6.92-4.25-4.24A45.41,45.41,0,0,1,32.84,34.67c-3.79.43-3.84,6.44,0,6Z" style="fill:#231815"/><path d="M154.39,6.84l8.24,2.46c3.71,1.1,5.29-4.68,1.59-5.79L156,1.05c-3.7-1.1-5.29,4.68-1.59,5.79Z" style="fill:#231815"/><path d="M59.84,9.49,70.43,12c3.76.89,5.36-4.89,1.6-5.79L61.44,3.71c-3.76-.9-5.36,4.89-1.6,5.78Z" style="fill:#231815"/><path d="M231.58,32c11-3.31,22.4-6.89,30.95-14.91,3.63-3.42,11.37-13.79,1.52-14.49C255.33,2,250.38,8.22,248,15.85c-2.72,8.55-5,18.38-2.78,27.26.94,3.75,6.72,2.16,5.79-1.59-1.5-6-.26-12.46,1.22-18.39,1.41-5.65,2.8-13.85,9.88-14.52a11.43,11.43,0,0,0,2,0c1,.24.56-.14-1.23-1.13L262,8.79c-3.34,2.75-5.55,6-9.36,8.39-6.93,4.37-14.85,6.72-22.63,9.06-3.69,1.11-2.12,6.9,1.59,5.79Z" style="fill:#231815"/><path d="M261,40.87a35.21,35.21,0,0,0,12.69-11.68l-5.48-2.31c-1.3,4.39-6,12.64,1.71,14.42,2.9.67,5.13-1.13,7.2-2.87a56.51,56.51,0,0,1,11.75-7.78l-4.1-4.11a19.71,19.71,0,0,0-2,14.21c.46,2.08,3.6,3.06,5,1.32,2.09-2.57,6.88-8.53,10.4-6,2,1.41,2.94,3.91,5.16,5.19,5.72,3.29,8.33-2.37,12.83-4.44,3.51-1.62.46-6.79-3-5.19-2.82,1.3-5,5.72-8,3.35-2-1.56-2.91-3.89-5.27-5.06-6.16-3.06-12.8,3.58-16.34,7.92l5,1.32A13.21,13.21,0,0,1,290,29.57a3,3,0,0,0-4.11-4.1,55.16,55.16,0,0,0-10.14,6.33c-.83.66-2.95,3.65-3.78,1.53-.13-.34,1.86-4.14,2.07-4.85,1-3.38-3.64-5.06-5.48-2.31A28.72,28.72,0,0,1,258,35.69c-3.39,1.84-.37,7,3,5.18Z" style="fill:#231815"/><path d="M275.33,20.88c.1,0,.2-.05.3-.06l-.79.11a3.11,3.11,0,0,1,.61,0l-.8-.11a2.59,2.59,0,0,1,.59.16l-.72-.31c.26.12.74.52,0-.06a3.22,3.22,0,0,0,2.12.88,3,3,0,0,0,2.12-.88c1-1.11,1.29-3.17,0-4.24a5.5,5.5,0,0,0-5.06-1.27,3,3,0,1,0,1.59,5.78Z" style="fill:#231815"/></g></g></svg>