<svg id="eu24ekl6k2sl1" xmlns="http://www.w3.org/2000/svg" xmlns:xlink="http://www.w3.org/1999/xlink" viewBox="0 0 33.100000 90" shape-rendering="geometricPrecision" text-rendering="geometricPrecision"><style><![CDATA[#eu24ekl6k2sl17_to {animation: eu24ekl6k2sl17_to__to 1000ms linear infinite alternate-reverse forwards}@keyframes eu24ekl6k2sl17_to__to { 0% {transform: translate(-0.100000px,20.100000px)} 50% {transform: translate(-0.050000px,12.219566px)} 100% {transform: translate(-0.050000px,5.426088px)} }]]></style><g id="eu24ekl6k2sl2"><g id="eu24ekl6k2sl3" transform="matrix(1 0 0 1 -1372 -1630)"><g id="eu24ekl6k2sl4" transform="matrix(1 0 0 1 1368 1624)"><g id="eu24ekl6k2sl5"><path id="eu24ekl6k2sl6" d="M4.400000,50.300000L7.500000,50.300000C9.800000,50.300000,11.400000,51.100000,11.400000,53.400000C11.400000,55.700000,9.800000,56.700000,7.500000,56.700000L6,56.700000L6,60.600000L4.400000,60.600000L4.400000,50.300000ZM7.400000,55.400000C9.100000,55.400000,9.800000,54.800000,9.800000,53.400000C9.800000,52,8.900000,51.600000,7.300000,51.600000L6,51.600000L6,55.400000L7.400000,55.400000Z" transform="matrix(1 0 0 1 -0.09999999999999 20.10000000000001)" fill="rgb(242,204,96)" stroke="none" stroke-width="1"/><path id="eu24ekl6k2sl7" d="M17.400000,57.700000L13.800000,57.700000L13,60.700000L11.300000,60.700000L14.700000,50.400000L16.600000,50.400000L20,60.700000L18.300000,60.700000L17.400000,57.700000ZM17,56.400000L16.600000,55C16.200000,53.900000,15.900000,52.700000,15.600000,51.600000L15.500000,51.600000C15.200000,52.800000,14.900000,53.900000,14.500000,55L14.100000,56.400000L17,56.400000Z" transform="matrix(1 0 0 1 -0.09999999999999 20.10000000000001)" fill="rgb(242,204,96)" stroke="none" stroke-width="1"/><path id="eu24ekl6k2sl8" d="M20.700000,55.500000C20.700000,52.100000,22.800000,50.100000,25.500000,50.100000C27,50.100000,27.900000,50.700000,28.600000,51.400000L27.700000,52.400000C27.200000,51.900000,26.600000,51.500000,25.600000,51.500000C23.700000,51.500000,22.400000,53,22.400000,55.400000C22.400000,57.900000,23.500000,59.400000,25.700000,59.400000C26.300000,59.400000,27,59.200000,27.300000,58.900000L27.300000,56.500000L25.300000,56.500000L25.300000,55.200000L28.800000,55.200000L28.800000,59.700000C28.100000,60.400000,27,60.900000,25.500000,60.900000C22.700000,60.800000,20.700000,58.900000,20.700000,55.500000Z" transform="matrix(1 0 0 1 -0.09999999999999 20.10000000000001)" fill="rgb(242,204,96)" stroke="none" stroke-width="1"/><path id="eu24ekl6k2sl9" d="M31,50.300000L37.100000,50.300000L37.100000,51.700000L32.600000,51.700000L32.600000,54.600000L36.400000,54.600000L36.400000,56L32.600000,56L32.600000,59.300000L37.200000,59.300000L37.200000,60.700000L31,60.700000L31,50.300000Z" transform="matrix(1 0 0 1 -0.09999999999999 20.10000000000001)" fill="rgb(242,204,96)" stroke="none" stroke-width="1"/></g><text id="eu24ekl6k2sl10" dx="0" dy="0" font-family="NotoSansCJKtc-Medium-B5pc-H" font-size="14" transform="matrix(1 0 0 1 41.54160000000000 66)" fill="rgb(242,204,96)" stroke="none" stroke-width="1"><![CDATA[ ]]></text><g id="eu24ekl6k2sl11"><path id="eu24ekl6k2sl12" d="M10.500000,66.700000L7.500000,66.700000L7.500000,65.300000L15.200000,65.300000L15.200000,66.700000L12.200000,66.700000L12.200000,75.700000L10.600000,75.700000L10.600000,66.700000Z" transform="matrix(1 0 0 1 -0.09999999999999 20.10000000000001)" fill="rgb(242,204,96)" stroke="none" stroke-width="1"/><path id="eu24ekl6k2sl13" d="M16,70.500000C16,67.200000,17.800000,65.200000,20.500000,65.200000C23.100000,65.200000,25,67.200000,25,70.500000C25,73.800000,23.200000,75.900000,20.500000,75.900000C17.800000,75.800000,16,73.800000,16,70.500000ZM23.300000,70.500000C23.300000,68.100000,22.200000,66.600000,20.500000,66.600000C18.800000,66.600000,17.700000,68.100000,17.700000,70.500000C17.700000,72.900000,18.800000,74.500000,20.500000,74.500000C22.200000,74.500000,23.300000,72.900000,23.300000,70.500000Z" transform="matrix(1 0 0 1 -0.09999999999999 20.10000000000001)" fill="rgb(242,204,96)" stroke="none" stroke-width="1"/><path id="eu24ekl6k2sl14" d="M27.100000,65.300000L30.200000,65.300000C32.500000,65.300000,34.100000,66.100000,34.100000,68.400000C34.100000,70.700000,32.500000,71.700000,30.200000,71.700000L28.600000,71.700000L28.600000,75.600000L27,75.600000L27,65.300000ZM30.100000,70.400000C31.800000,70.400000,32.500000,69.800000,32.500000,68.400000C32.500000,67,31.600000,66.600000,30,66.600000L28.700000,66.600000L28.700000,70.400000L30.100000,70.400000Z" transform="matrix(1 0 0 1 -0.09999999999999 20.10000000000001)" fill="rgb(242,204,96)" stroke="none" stroke-width="1"/></g><g id="eu24ekl6k2sl15" transform="matrix(1 0 0 1 6 6)"><g id="eu24ekl6k2sl16" transform="matrix(1 0 0 1 10 0)"><g id="eu24ekl6k2sl17_to" transform="translate(-0.050000,5.426088)"><path id="eu24ekl6k2sl17" d="M11.100000,8.300000C11.100000,12,8.200000,14.600000,4.600000,14.600000C1,14.600000,-1.900000,12,-1.900000,8.300000C-1.900000,4.600000,1,1.600000,4.600000,1.600000C8.200000,1.600000,11.100000,4.600000,11.100000,8.300000" transform="translate(0,0)" clip-rule="evenodd" fill="rgb(150,0,0)" fill-rule="evenodd" stroke="rgb(255,255,255)" stroke-width="1" stroke-linecap="round" stroke-linejoin="round" stroke-miterlimit="10"/></g></g><g id="eu24ekl6k2sl18" transform="matrix(1 0 0 1 0 16)"><polygon id="eu24ekl6k2sl19" points="13.100000,1 -1.900000,21.400000 28.100000,21.400000" transform="matrix(1 0 0 1 1.50000000000001 20.20000000000002)" clip-rule="evenodd" fill="rgb(219,180,52)" fill-rule="evenodd" stroke="none" stroke-width="1"/></g></g></g></g></g></svg>