<svg id="eudjz5i14t81" xmlns="http://www.w3.org/2000/svg" xmlns:xlink="http://www.w3.org/1999/xlink" viewBox="0 0 172 97" shape-rendering="geometricPrecision" text-rendering="geometricPrecision"><style><![CDATA[#eudjz5i14t85_tr {animation: eudjz5i14t85_tr__tr 4000ms linear infinite normal forwards}@keyframes eudjz5i14t85_tr__tr { 0% {transform: translate(86.500000px,47.500000px) rotate(180.242273deg)} 12.500000% {transform: translate(86.500000px,47.500000px) rotate(539.888252deg)} 100% {transform: translate(86.500000px,47.500000px) rotate(539.888252deg)} }#eudjz5i14t85 {
           animation-name: eudjz5i14t85_s_do, eudjz5i14t85_s_da;
           animation-duration: 4000ms;
           animation-fill-mode: forwards;
           animation-timing-function: linear;
           animation-direction: normal;
           animation-iteration-count: infinite;  
        }@keyframes eudjz5i14t85_s_do { 0% {stroke-dashoffset: 298.450000} 12.500000% {stroke-dashoffset: 0} 100% {stroke-dashoffset: 0} }@keyframes eudjz5i14t85_s_da { 0% {stroke-dasharray: 298.450000} 12.500000% {stroke-dasharray: 298.450000} 100% {stroke-dasharray: 298.450000} }#eudjz5i14t86 {animation: eudjz5i14t86_s_do 4000ms linear infinite normal forwards}@keyframes eudjz5i14t86_s_do { 0% {stroke-dashoffset: 91.320000} 12.500000% {stroke-dashoffset: 91.320000} 25% {stroke-dashoffset: 0} 100% {stroke-dashoffset: 0} }#eudjz5i14t87 {animation: eudjz5i14t87_s_do 4000ms linear infinite normal forwards}@keyframes eudjz5i14t87_s_do { 0% {stroke-dashoffset: 17} 25% {stroke-dashoffset: 17} 30% {stroke-dashoffset: 0} 100% {stroke-dashoffset: 0} }#eudjz5i14t88 {animation: eudjz5i14t88_c_o 4000ms linear infinite normal forwards}@keyframes eudjz5i14t88_c_o { 0% {opacity: 0} 30% {opacity: 0} 40% {opacity: 1} 100% {opacity: 1} }#eudjz5i14t89 {animation: eudjz5i14t89_c_o 4000ms linear infinite normal forwards}@keyframes eudjz5i14t89_c_o { 0% {opacity: 0} 40% {opacity: 0} 52.500000% {opacity: 1} 100% {opacity: 1} }#eudjz5i14t810 {animation: eudjz5i14t810_s_do 4000ms linear infinite normal forwards}@keyframes eudjz5i14t810_s_do { 0% {stroke-dashoffset: 17} 52.500000% {stroke-dashoffset: 17} 60% {stroke-dashoffset: 0} 100% {stroke-dashoffset: 0} }#eudjz5i14t811 {animation: eudjz5i14t811_s_do 4000ms linear infinite normal forwards}@keyframes eudjz5i14t811_s_do { 0% {stroke-dashoffset: 91.320000} 60% {stroke-dashoffset: 91.320000} 75% {stroke-dashoffset: 0} 100% {stroke-dashoffset: 0} }]]></style><defs><linearGradient id="eudjz5i14t85-stroke" x1="-8105.006500" y1="4519.614000" x2="-8156.990500" y2="4600.383000" spreadMethod="pad" gradientUnits="userSpaceOnUse"><stop id="eudjz5i14t85-stroke-0" offset="0%" stop-color="rgb(225,168,53)"/><stop id="eudjz5i14t85-stroke-1" offset="30%" stop-color="rgb(241,212,110)"/><stop id="eudjz5i14t85-stroke-2" offset="37%" stop-color="rgb(255,237,166)"/><stop id="eudjz5i14t85-stroke-3" offset="73%" stop-color="rgb(255,243,166)"/><stop id="eudjz5i14t85-stroke-4" offset="100%" stop-color="rgb(181,126,16)"/></linearGradient><linearGradient id="eudjz5i14t88-fill" x1="92.660300" y1="14.069100" x2="74.602400" y2="70.132800" spreadMethod="pad" gradientUnits="userSpaceOnUse"><stop id="eudjz5i14t88-fill-0" offset="0%" stop-color="rgb(181,126,16)"/><stop id="eudjz5i14t88-fill-1" offset="45.740000%" stop-color="rgb(249,223,123)"/><stop id="eudjz5i14t88-fill-2" offset="64.890000%" stop-color="rgb(255,243,166)"/><stop id="eudjz5i14t88-fill-3" offset="100%" stop-color="rgb(181,126,16)"/></linearGradient><linearGradient id="eudjz5i14t89-fill" x1="102.226400" y1="27.854047" x2="84.109300" y2="70.368047" spreadMethod="pad" gradientUnits="userSpaceOnUse"><stop id="eudjz5i14t89-fill-0" offset="0%" stop-color="rgb(181,126,16)"/><stop id="eudjz5i14t89-fill-1" offset="34%" stop-color="rgb(249,223,123)"/><stop id="eudjz5i14t89-fill-2" offset="60%" stop-color="rgb(255,243,166)"/><stop id="eudjz5i14t89-fill-3" offset="100%" stop-color="rgb(181,126,16)"/></linearGradient></defs><g id="eudjz5i14t82"><g id="eudjz5i14t83" transform="matrix(1 0 0 1 -599 -712)"><g id="eudjz5i14t84" transform="matrix(1 0 0 1 600 713)"><g id="eudjz5i14t85_tr" transform="translate(86.500000,47.500000) rotate(180.242273)"><circle id="eudjz5i14t85" r="47.500000" transform="translate(0,0)" fill="none" stroke="url(#eudjz5i14t85-stroke)" stroke-width="2" stroke-linecap="round" stroke-dashoffset="298.450000" stroke-dasharray="298.450000"/></g><path id="eudjz5i14t86" d="M0,61L31,61C33.800000,61,36,59,36,56.500000C36,54,33.800000,52,31,52L31.200000,52L18,52C15.200000,52,13,50,13,47.500000C13,45,15.200000,43,18,43L35,43" fill="none" stroke="rgb(249,223,123)" stroke-width="2" stroke-linecap="round" stroke-linejoin="round" stroke-dashoffset="91.320000" stroke-dasharray="91.320000"/><line id="eudjz5i14t87" x1="43" y1="43" x2="60" y2="43" fill="none" stroke="rgb(249,223,123)" stroke-width="2" stroke-linecap="round" stroke-linejoin="round" stroke-dashoffset="17" stroke-dasharray="17"/><path id="eudjz5i14t88" d="M87.800000,25.700000C87.400000,25.900000,87.100000,26.300000,86.900000,26.800000L86.800000,27L86.400000,30.600000C86.600000,30.700000,86.700000,31,86.600000,31.200000L86.300000,31.400000L82.800000,31.600000L82.800000,32.900000C83,32.900000,83.700000,32.800000,84.900000,32.600000C85.200000,32.500000,85.400000,32.500000,85.700000,32.500000C86.100000,32.500000,86.400000,32.800000,86.700000,33.400000C86.700000,33.500000,86.600000,33.600000,86.500000,33.700000L83.600000,33.900000C83.400000,33.900000,83.100000,34,82.900000,34L82.900000,35.700000L86.300000,35.400000C86.500000,35.500000,86.500000,35.600000,86.200000,35.900000L86,36.100000L80.800000,37.100000L77.400000,37.900000C77.100000,38,76.600000,37.600000,75.900000,36.900000C75.900000,36.800000,76,36.700000,76.300000,36.600000L77.900000,36.400000L77.900000,36.400000C79.900000,36.200000,81,36,81.400000,36L81.400000,34.300000L79,34.500000C78.200000,34.500000,77.700000,34.300000,77.400000,33.800000C77.400000,33.700000,77.500000,33.600000,77.700000,33.500000L81.600000,33.100000L81.600000,31.600000C80.900000,31.600000,80.200000,31.600000,79.400000,31.700000L79.300000,32.700000L79.100000,33C78.400000,32.300000,78,31.900000,77.900000,31.700000C77.800000,31.600000,77.700000,31.400000,77.700000,31.300000C78.300000,30.100000,78.400000,28.300000,78.100000,25.800000C78.100000,25.500000,78,25.200000,78,24.800000C78,24.700000,78.100000,24.600000,78.400000,24.600000L78.700000,24.600000C78.900000,24.800000,79,25.100000,79.200000,25.400000C79.400000,25.700000,79.500000,25.900000,79.800000,25.900000L80.300000,25.800000L85.600000,25.300000L86.300000,24.800000C86.400000,24.700000,86.600000,24.700000,86.800000,24.700000L87.900000,25.400000C87.800000,25.300000,87.800000,25.400000,87.800000,25.700000ZM76.900000,43.100000C76.700000,42.700000,76.600000,42.200000,76.400000,41.700000C76.400000,41.600000,76.300000,41.500000,76.300000,41.500000C76.400000,41.100000,76.700000,40.700000,76.900000,40.400000C77,40.300000,77.100000,40.200000,77.100000,40.100000C77.400000,39.500000,77.700000,38.900000,77.900000,38.200000L78.100000,38C78.500000,38.400000,78.500000,39.300000,78.200000,40.700000C77.900000,42.100000,77.500000,42.900000,77,43.200000C77.100000,43.100000,77,43.100000,76.900000,43.100000L76.900000,43.100000ZM81.500000,30.800000L81.500000,26.600000L79.400000,26.800000L79.400000,30.800000L81.500000,30.800000ZM81.200000,28.700000C81.200000,29.200000,81,29.600000,80.800000,30.100000L80.600000,30.200000L80.500000,30.100000C80.400000,29.900000,80.100000,29.100000,79.800000,27.800000C79.800000,27.600000,79.700000,27.600000,79.700000,27.500000C79.700000,27.400000,79.800000,27.300000,79.900000,27.300000C80.200000,27.400000,80.600000,27.700000,81,28.300000C81.100000,28.500000,81.200000,28.600000,81.200000,28.700000L81.200000,28.700000ZM81.500000,41.200000C81.300000,41.300000,81.100000,41.500000,81,41.700000C80.800000,41.900000,80.500000,42,80.200000,41.900000L79.900000,38C80,37.800000,80.200000,37.800000,80.400000,38L80.500000,38.100000L81.300000,40.200000C81.500000,40.500000,81.500000,40.800000,81.500000,41.200000L81.500000,41.200000ZM84.500000,40C84.400000,40.400000,84.200000,40.700000,83.900000,41C83.800000,41.100000,83.700000,41.200000,83.600000,41.300000C83.400000,41.300000,83.200000,41.300000,83,41.200000C83,41,82.800000,39.800000,82.500000,37.600000C82.500000,37.500000,82.500000,37.400000,82.400000,37.400000C82.400000,37.400000,82.500000,37.400000,82.600000,37.300000C82.800000,37.300000,83.400000,38.200000,84.500000,40L84.500000,40ZM85.700000,26.200000L82.800000,26.400000L82.800000,30.600000L85.100000,30.400000L85.700000,26.200000ZM85.200000,27.600000C85.100000,28.100000,84.900000,28.500000,84.600000,28.800000L84.300000,29.300000C84.300000,29.300000,84.300000,29.400000,84.300000,29.400000L83.900000,30C83.800000,30.100000,83.700000,30.100000,83.600000,30.100000L83.300000,30C83.600000,28.900000,83.900000,27.800000,84,26.700000L84.200000,26.600000L84.400000,26.700000L85.200000,27.600000ZM86.100000,40.700000C85.800000,40.800000,85.700000,40.800000,85.700000,40.800000L85.600000,40.700000L84.600000,37L84.700000,36.800000L85.100000,36.900000C86.400000,38.400000,87,39.300000,87,39.600000C86.900000,39.900000,86.700000,40.200000,86.500000,40.500000C86.300000,40.500000,86.200000,40.600000,86.100000,40.700000L86.100000,40.700000ZM97,30C96.900000,30.100000,96.800000,30.200000,96.700000,30.200000C95.700000,30.400000,94.200000,30.600000,92.100000,30.800000L92.100000,35L93.600000,34.800000L94.200000,34C94.300000,33.900000,94.400000,33.800000,94.500000,33.800000C95.100000,34,95.600000,34.300000,96,34.800000C96,34.900000,95.900000,35.100000,95.700000,35.300000L95.500000,35.600000L95.500000,35.600000C95.400000,35.800000,95.300000,36,95.200000,36.200000L94.800000,40.100000C95.100000,40.300000,95.300000,40.600000,95.300000,41L95,41.200000C94.200000,41.200000,92.200000,41.400000,89.100000,41.600000C89.100000,43.200000,89,43.900000,88.900000,44C88.700000,43.900000,88.200000,43.400000,87.400000,42.300000C87.400000,42.100000,87.500000,42,87.600000,41.900000C87.800000,41.100000,87.900000,39.200000,87.800000,36.200000C87.800000,35.700000,87.800000,35.300000,87.800000,35.100000L87.700000,34.500000L87.700000,34.500000C87.700000,34.300000,87.800000,34.200000,87.900000,34.100000L88.400000,34.200000L89.100000,35.400000L90.800000,35.200000L90.800000,25C90.700000,24.500000,90.600000,24.100000,90.500000,23.600000C90.400000,23.400000,90.400000,23.300000,90.400000,23.100000C90.400000,23,90.500000,23,90.900000,23L92.100000,23.800000L92.400000,24.200000C92.400000,24.300000,92.500000,24.300000,92.500000,24.400000C92.400000,24.600000,92.400000,24.900000,92.300000,25.100000L92.200000,25.300000C92,26.500000,92,27.700000,92.100000,28.900000C92.100000,29.200000,92.100000,29.400000,92.100000,29.600000C93.300000,29.600000,94.400000,29.300000,95.500000,29C96.100000,29.100000,96.700000,29.400000,97,30L97,30ZM93.700000,35.900000C93.400000,35.900000,91.900000,36.100000,89,36.300000L89,40.500000L93.300000,40.100000L93.700000,35.900000Z" transform="matrix(0.99999749840752 0.00223677864410 -0.00223677864410 0.99999749840752 0.07514834724714 -0.19328571043400)" opacity="0" fill="url(#eudjz5i14t88-fill)" stroke="none" stroke-width="1"/><path id="eudjz5i14t89" d="M83.900000,68.200000C83.800000,68.300000,83.800000,68.400000,83.700000,68.500000L83.500000,68.400000C82.600000,67.400000,81.500000,66.500000,80.400000,65.700000C79.600000,67.700000,78.300000,69.500000,76.700000,71C76.400000,71.300000,76,71.600000,75.600000,71.800000C75.400000,72,75.200000,72,75,72L75.100000,71.800000C78.200000,68.700000,79.800000,65.400000,79.900000,62L80.100000,56.400000C80.100000,55.900000,80.200000,55.600000,80.200000,55.400000C80.200000,54.700000,80.100000,54,80,53.300000L79.800000,52.600000C79.800000,52.500000,79.800000,52.400000,80,52.400000C79.900000,52.400000,80,52.400000,80.300000,52.500000C80.300000,52.500000,80.600000,52.700000,81.200000,53.100000C81.600000,53.300000,81.800000,53.700000,81.800000,54.100000C81.500000,55,81.300000,56.400000,81.300000,58.500000C81.300000,59.300000,81.300000,59.800000,81.300000,60.200000C82,59.500000,82.700000,58.700000,83.200000,57.800000C83.500000,57.800000,83.700000,58,83.800000,58.500000C83.900000,58.700000,83.900000,58.800000,84,59C84,59.300000,83.800000,59.600000,83.500000,59.800000C82.700000,60.300000,81.900000,60.800000,81.100000,61.400000L80.700000,64.300000L80.500000,65C82.300000,65.800000,83.300000,66.400000,83.800000,66.700000C83.900000,67.100000,84,67.500000,83.900000,67.900000C83.900000,67.900000,83.900000,68,83.900000,68.200000L83.900000,68.200000ZM78.900000,60.100000C78.900000,60.900000,78.700000,61.400000,78.400000,61.700000C78.200000,61.700000,78,61.500000,77.900000,61.200000L76.300000,57.400000C76.300000,57.200000,76.400000,57.100000,76.600000,57.100000C76.700000,57.100000,76.700000,57.200000,76.800000,57.200000C77.600000,58,78.300000,58.900000,78.800000,59.800000C78.800000,59.900000,78.800000,60,78.900000,60.100000L78.900000,60.100000ZM98,62.100000C98,62.300000,97.800000,62.400000,97.500000,62.500000L94.800000,62.900000C94.600000,62.900000,94.400000,62.900000,94.300000,62.900000C94.100000,62.900000,93.800000,62.600000,93.500000,62.200000C92.200000,59.700000,90.900000,57.200000,89.800000,54.500000C89.100000,55.400000,88.600000,56.500000,88.200000,57.500000C87.900000,58.100000,87.600000,58.800000,87.300000,59.400000L90.600000,59C90.800000,59,91,59,91.100000,59C91.400000,59,91.700000,59.200000,91.800000,59.500000C91.900000,59.800000,91.800000,59.900000,91.600000,59.900000L86.400000,60.600000C85.400000,61.800000,84.300000,62.900000,82.900000,63.800000C82.600000,64,82.300000,64.100000,81.900000,64.200000L81.900000,64C83.500000,62.600000,84.900000,60.900000,86.100000,59.200000C86,59,85.600000,58.400000,84.800000,57.300000C84.600000,57,84.500000,56.800000,84.300000,56.500000C84.300000,56.400000,84.200000,56.300000,84.200000,56.200000C85,56.200000,85.800000,56.800000,86.700000,57.900000C87.200000,56.900000,87.500000,55.900000,87.800000,54.900000L85.400000,55L84.600000,54.900000L84.600000,54.900000C84.400000,54.700000,84.300000,54.500000,84.200000,54.200000L84.500000,54C86.100000,53.800000,87.300000,53.700000,88,53.600000C88.200000,53.300000,88.400000,53.100000,88.500000,53.100000C88.700000,53.100000,88.800000,53.100000,89,53.200000L88.700000,52.400000C88.700000,52.300000,88.700000,52.100000,88.900000,52C89.600000,52,90.100000,52.400000,90.300000,53L90.700000,54.400000L90.900000,54.700000C91,54.900000,91.100000,55.200000,91.300000,55.400000C91.900000,54.500000,92.400000,53.500000,92.900000,52.500000C93,52.300000,93.100000,52.100000,93.200000,52C93.400000,52,93.600000,52.200000,93.800000,52.500000L94,52.800000C94.200000,53.100000,94.300000,53.500000,94.300000,53.900000L94.200000,54.100000C93.100000,55,92.300000,55.600000,91.800000,56.200000C92,56.800000,92.300000,57.300000,92.600000,57.800000C93.400000,56.800000,93.800000,56.100000,94,55.900000C94.400000,55.300000,94.600000,54.900000,94.600000,54.900000C94.700000,54.800000,94.900000,54.700000,95,54.800000L95.600000,55.900000C95.700000,56.200000,95.700000,56.500000,95.500000,56.800000C94.600000,57.300000,93.700000,57.900000,92.900000,58.600000C93.400000,59.800000,94.300000,60.800000,95.500000,61.400000C95.800000,61.500000,96.100000,61.700000,96.400000,61.800000C96.500000,61.800000,96.900000,61.900000,97.600000,62C97.800000,61.900000,97.900000,62,98,62.100000L98,62.100000ZM97.600000,70.200000C97.600000,70.400000,97.500000,70.500000,97.400000,70.500000L85.800000,71.600000L84.400000,71.800000C83.900000,71.800000,83.400000,71.500000,83.100000,71C83.100000,70.900000,83.100000,70.800000,83.200000,70.800000C83.300000,70.800000,83.300000,70.700000,83.400000,70.700000L87.900000,70.500000C87.800000,69.800000,87.500000,68.900000,86.900000,67.600000C86.700000,67.100000,86.400000,66.700000,86.100000,66.300000C86,66,86,65.500000,86.400000,64.900000C86.400000,63.800000,86.400000,62.700000,86.200000,61.600000C86.400000,61.400000,86.700000,61.400000,87,61.800000C87.100000,62,87.300000,62.100000,87.500000,62.200000L91.500000,61.800000L92.100000,61.300000C92.300000,61.200000,92.400000,61.200000,92.600000,61.200000L93.200000,61.800000C93.300000,61.900000,93.300000,62,93.300000,62.200000C93.200000,62.400000,93.100000,62.600000,93,62.800000C93,62.900000,92.900000,62.900000,92.900000,63C92.700000,63.600000,92.600000,64.200000,92.500000,64.800000C92.800000,64.900000,93,65,92.900000,65.300000C92.900000,65.300000,92.900000,65.400000,92.900000,65.400000L92.700000,65.600000L87.400000,66C87.300000,66.100000,87.300000,66.300000,87.300000,66.500000C87.300000,66.700000,87.600000,67.200000,88.100000,67.900000C88.700000,68.800000,89,69.500000,88.800000,70C88.800000,70.200000,88.700000,70.300000,88.600000,70.400000C89.100000,70.400000,89.700000,70.400000,90.200000,70.300000C90.600000,69.900000,91.100000,69,91.600000,67.500000C91.700000,67,91.900000,66.600000,92.100000,66.100000C92.400000,66.100000,92.700000,66.300000,93.100000,66.800000C93.200000,67,93.400000,67.200000,93.600000,67.400000L93.500000,67.700000L91.500000,70.100000C92.500000,70,93.600000,69.900000,94.800000,69.700000L96.400000,69.500000C96.900000,69.500000,97.300000,69.700000,97.600000,70.100000C97.600000,70.100000,97.600000,70.200000,97.600000,70.200000L97.600000,70.200000ZM91.600000,62.900000L87.400000,63.300000L87.400000,64.700000L91.200000,64.400000C91.300000,64,91.400000,63.600000,91.500000,63.200000C91.500000,63.200000,91.600000,63.100000,91.600000,62.900000Z" opacity="0" fill="url(#eudjz5i14t89-fill)" stroke="none" stroke-width="1"/><line id="eudjz5i14t810" x1="112.368331" y1="61" x2="125.637825" y2="61" fill="none" stroke="rgb(249,223,123)" stroke-width="2" stroke-linecap="round" stroke-linejoin="round" stroke-dashoffset="17" stroke-dasharray="17"/><path id="eudjz5i14t811" d="M135,61L152,61C154.800000,61,157,63,157,65.500000C157,68,154.800000,70,152,70L138.800000,70L139,70C136.200000,70,134,72,134,74.500000C134,77,136.200000,79,139,79L170,79" fill="none" stroke="rgb(249,223,123)" stroke-width="2" stroke-linecap="round" stroke-linejoin="round" stroke-dashoffset="91.320000" stroke-dasharray="91.320000"/></g></g></g></svg>