<?xml version="1.0" ?><svg id="flat" viewBox="0 0 340 340" xmlns="http://www.w3.org/2000/svg"><title/><path d="M267.636,16.928a57.728,57.728,0,0,0-40.931,98.439l-5.962,27.454,29.287-13.175A57.734,57.734,0,1,0,267.636,16.928Z" style="fill:#fff"/><path d="M176.483,226.643,164.5,199.959l-18.217,4.119A66.79,66.79,0,0,0,134.9,193.354l3.047-18.437-27.341-10.4-9.973,15.8a66.875,66.875,0,0,0-15.634.45L74.123,165.589,47.439,177.57l4.119,18.217a66.869,66.869,0,0,0-10.724,11.384L22.4,204.124,12,231.465l15.8,9.974a66.814,66.814,0,0,0,.45,15.633L13.07,267.949l11.981,26.684,18.216-4.119a66.838,66.838,0,0,0,11.385,10.724l-3.047,18.437,27.34,10.4,9.974-15.8a66.768,66.768,0,0,0,15.634-.45L115.429,329l26.684-11.981-4.119-18.216a66.759,66.759,0,0,0,10.724-11.385l18.437,3.047,10.4-27.34-15.8-9.974a66.877,66.877,0,0,0-.45-15.634ZM90.4,237.542a10.692,10.692,0,1,1-5.375,14.133A10.691,10.691,0,0,1,90.4,237.542Z" style="fill:#9ea6cc"/><path d="M118.63,77.142A47.523,47.523,0,0,0,112.1,65.377l.031.018,2.154-23.248L97.613,32.712,78.79,46.525l.04.022a48.11,48.11,0,0,0-9.837-.056l.012-.006L50.3,32.519l-16.746,9.3,1.966,23.265.012-.007a48.034,48.034,0,0,0-5.152,8.38l0-.046L8.7,82.089l-.8,19.137,20.874,10.46,0-.036a47.587,47.587,0,0,0,6.534,11.764l-.032-.017-2.154,23.248,16.669,9.435,18.823-13.813-.04-.023a48.039,48.039,0,0,0,9.837.056l-.012.007,18.711,13.965,16.745-9.3-1.966-23.265-.012.006a48.034,48.034,0,0,0,5.152-8.38l0,.047,21.676-8.678.8-19.138L118.632,77.106ZM80.994,107.524a15.017,15.017,0,1,1,5.838-20.419A15.017,15.017,0,0,1,80.994,107.524Z" style="fill:#9ea6cc"/><path d="M303.639,264.636a47.652,47.652,0,0,0,5.024-12.484l.006.035,19.416-12.966-3.167-18.891-22.584-5.923.007.045a48.01,48.01,0,0,0-6.151-7.676l.013,0-.934-23.329L277.5,176.3l-16.835,16.177.013.006a47.949,47.949,0,0,0-9.754,1.275l.037-.028L230.57,182.357,215.2,193.786l5.02,22.8.029-.021a47.615,47.615,0,0,0-5.024,12.484l-.006-.036L195.8,241.982l3.167,18.89,22.584,5.924-.007-.046a48.061,48.061,0,0,0,6.151,7.677l-.013-.006.934,23.33,17.769,7.151,16.835-16.177-.013,0a48.081,48.081,0,0,0,9.754-1.275l-.037.027,20.391,11.373,15.371-11.429-5.02-22.8Zm-47.3-10.1a15.017,15.017,0,1,1,19.539-8.324A15.018,15.018,0,0,1,256.336,254.532Z" style="fill:#9ea6cc"/><rect height="17.462" style="fill:#f9a56b" transform="translate(-39.21 59.29) rotate(-16.99)" width="40.658" x="158.543" y="152.17"/><rect height="43.004" style="fill:#f9a56b" transform="translate(-47.273 63.134) rotate(-16.99)" width="17.202" x="179.105" y="168.313"/><path d="M212.315,153.718l8.706-34.821a63.836,63.836,0,0,1-17.849-44.505,64.464,64.464,0,1,1,45.269,61.54Zm55.321-133.79a54.448,54.448,0,0,0-37.622,93.823l2.1,2.007-4.865,19.462,20.488-10.087,1.977.689A54.464,54.464,0,1,0,267.636,19.928Z" style="fill:#f9a56b"/><path d="M269.12,37.357h-2.969a8.262,8.262,0,0,0-8.235,8.6c.849,22.954,9.72,34.687,9.72,34.687s8.871-11.733,9.72-34.687A8.262,8.262,0,0,0,269.12,37.357Z" style="fill:#f9a56b"/><circle cx="267.636" cy="102.054" r="8.13" style="fill:#f9a56b"/><path d="M132.122,255.783a4,4,0,0,0-5.076,2.5q-.194.569-.408,1.133a34.075,34.075,0,1,1-4.031-31.807,4,4,0,1,0,6.535-4.613,42.093,42.093,0,1,0,4.973,39.265q.265-.7.5-1.4A4,4,0,0,0,132.122,255.783Z" style="fill:#3d4459"/><path d="M131.883,237.814a4,4,0,0,0-3.372,4.542c.106.719.19,1.45.249,2.175a4,4,0,0,0,3.983,3.674c.109,0,.22,0,.331-.014a4,4,0,0,0,3.66-4.312c-.074-.9-.178-1.8-.309-2.693A4,4,0,0,0,131.883,237.814Z" style="fill:#3d4459"/><path d="M52.151,110.346A26.773,26.773,0,1,1,76,121.109a4,4,0,0,0,.342,7.985c.116,0,.234,0,.351-.014A34.808,34.808,0,1,0,61.909,61.65,34.83,34.83,0,0,0,45.718,115.1a4,4,0,1,0,6.433-4.756Z" style="fill:#3d4459"/><path d="M61.791,118.408a4,4,0,0,0-3.538,7.176l.254.123a4,4,0,1,0,3.459-7.213Z" style="fill:#3d4459"/><path d="M280.062,210.818A34.826,34.826,0,0,0,228.346,231.9a4,4,0,1,0,7.745,2,26.774,26.774,0,1,1,6.659,25.305,4,4,0,0,0-5.756,5.556,34.808,34.808,0,1,0,43.068-53.947Z" style="fill:#3d4459"/><path d="M235.946,246.674l-.042-.185a4,4,0,0,0-7.811,1.73l.064.28a4,4,0,1,0,7.789-1.825Z" style="fill:#3d4459"/><rect height="8" style="fill:#ea6d42" transform="translate(-45.423 62.251) rotate(-16.99)" width="17.202" x="177.08" y="179.185"/><rect height="8" style="fill:#ea6d42" transform="translate(-49.121 64.013) rotate(-16.99)" width="17.202" x="181.131" y="192.445"/></svg>